<?xml version="1.0" encoding="utf-8"?>
<!-- Generator: Adobe Illustrator 16.0.0, SVG Export Plug-In . SVG Version: 6.00 Build 0)  -->
<!DOCTYPE svg PUBLIC "-//W3C//DTD SVG 1.1//EN" "http://www.w3.org/Graphics/SVG/1.1/DTD/svg11.dtd">
<svg version="1.1" id="Layer_1" xmlns="http://www.w3.org/2000/svg" xmlns:xlink="http://www.w3.org/1999/xlink" x="0px" y="0px"
	 width="801.695px" height="233.898px" viewBox="0 0 801.695 233.898" enable-background="new 0 0 801.695 233.898"
	 xml:space="preserve">
<g>
	<g>
		<g>
			<path fill="#00A3C3" d="M303.57,226.393c-3.991,0-7.233-1.124-9.715-3.376c-2.485-2.253-3.731-5.249-3.731-8.994
				c0-3.753,1.235-6.749,3.686-9.004c2.451-2.246,5.667-3.368,9.653-3.368c3.349,0,6.136,0.697,8.35,2.08
				c2.213,1.392,3.459,3.247,3.724,5.577h-3.813c-0.148-1.549-0.963-2.761-2.427-3.632c-1.469-0.882-3.401-1.318-5.802-1.318
				c-2.868,0-5.178,0.843-6.924,2.535c-1.751,1.683-2.631,4.059-2.631,7.13c0,3.058,0.884,5.431,2.658,7.125
				c1.771,1.688,4.081,2.536,6.938,2.536c4.005,0,6.984-1.137,8.928-3.409v-3.64h-7.336v-2.854h10.905v12.208h-2.6l-0.969-2.518
				C310.58,225.422,307.621,226.393,303.57,226.393z"/>
			<path fill="#00A3C3" d="M404.967,225.988H387.76v-23.928h3.68v21.089h13.527V225.988z"/>
			<path fill="#00A3C3" d="M485.469,201.65c3.895,0,7.079,1.134,9.556,3.395c2.474,2.265,3.711,5.257,3.711,8.978
				c0,3.717-1.237,6.713-3.711,8.981c-2.477,2.265-5.661,3.389-9.556,3.389c-3.908,0-7.104-1.13-9.596-3.404
				c-2.491-2.273-3.735-5.254-3.735-8.966c0-3.721,1.244-6.713,3.735-8.978C478.364,202.784,481.561,201.65,485.469,201.65z
				 M485.433,223.684c2.784,0,5.059-0.854,6.834-2.548c1.771-1.694,2.663-4.064,2.663-7.113s-0.892-5.415-2.657-7.115
				c-1.767-1.702-4.025-2.55-6.765-2.55c-2.793,0-5.09,0.848-6.879,2.55c-1.785,1.7-2.68,4.066-2.68,7.115
				c0,3.037,0.895,5.406,2.671,7.105C480.404,222.83,482.677,223.684,485.433,223.684z"/>
			<path fill="#00A3C3" d="M588.478,219.037c0,2.24-0.886,3.959-2.648,5.16c-1.777,1.187-4.346,1.791-7.714,1.791H567.7v-23.928
				h9.896c2.958,0,5.281,0.538,6.976,1.63c1.694,1.086,2.54,2.58,2.54,4.475c0,2.303-1.333,4.018-3.996,5.121
				c1.79,0.393,3.141,1.125,4.028,2.168C588.037,216.501,588.478,217.694,588.478,219.037z M571.378,212.081h6.175
				c2.043,0,3.539-0.278,4.493-0.837c0.962-0.566,1.445-1.494,1.445-2.803c0-1.177-0.463-2.062-1.396-2.652
				c-0.94-0.589-2.57-0.886-4.879-0.886h-5.838V212.081z M571.378,223.149h6.688c4.398,0,6.606-1.379,6.606-4.112
				c0-1.426-0.512-2.465-1.529-3.126c-1.019-0.655-2.867-0.995-5.548-0.995h-6.218V223.149z"/>
			<path fill="#00A3C3" d="M680.495,225.988h-4.155l-3.227-7.279h-11.637l-3.073,7.279h-3.889l10.681-23.928h3.959L680.495,225.988z
				 M672.041,216.194l-4.895-11.099l-4.667,11.099H672.041z"/>
			<path fill="#00A3C3" d="M764.835,225.988h-17.207v-23.928h3.68v21.089h13.527V225.988z"/>
		</g>
		<g>
			<g>
				<path fill="#FFFFFF" d="M439.002,144.967v-34.498c0,0,0.372-2.2,1.573-3.754c1.479-1.906,9.14-10.628,12.799-14.478
					c2.729-2.832,6.552-5.246,9.474-6.733c2.907-1.439,5.574-1.926,8.81-2.131l0.41-0.014c0.156,0,0.297,0,0.478,0
					c4.709,0.025,9.369,1.055,12.693,3.481c3.383,2.438,6.084,6.198,8.124,11.294h0.721c3.813-5.191,7.539-8.972,11.211-11.348
					c3.694-2.413,7.723-3.593,12.069-3.593c6.666,0,12.071,2.272,16.087,6.721c4.023,4.524,6.05,10.454,6.05,17.912
					c0.113,4.421,0.176,7.791,0.176,10.044v29.633c0,1.828,0.431,3.279,1.252,4.313c0.841,1.016,2.438,1.766,4.775,2.147
					c0.071,0,0.109,0,0.192,0c1.902,0.368,2.867,0.999,2.867,1.885c0,0.493-0.15,0.878-0.423,1.052
					c-0.287,0.212-1.037,0.307-2.285,0.307c-0.061,0-1.379,0.039-3.971-0.267c-2.604-0.329-5.396-0.315-7.961-0.315
					c-2.04,0-4.197-0.014-6.853,0.315c-2.685,0.306-4.358,0.267-4.978,0.267c-1.305,0-2.083-0.095-2.366-0.307
					c-0.274-0.174-0.416-0.559-0.416-1.052c0-0.51,0.192-0.886,0.603-1.156c0.412-0.27,1.177-0.522,2.382-0.729
					c2.485-0.382,4.178-1.12,5.057-2.114c0.861-0.995,1.311-2.453,1.311-4.346v-32.56c0-9.042-1.271-15.524-3.825-19.446
					c-2.516-3.909-6.618-5.886-12.304-5.886c-5.393,0-9.629,2.06-12.779,6.156c-3.183,4.106-4.781,9.819-4.841,17.142l-0.473,34.594
					c0,1.828,0.417,3.279,1.27,4.313c0.825,1.016,2.435,1.766,4.833,2.147c1.266,0.13,2.099,0.315,2.548,0.595
					c0.48,0.261,0.707,0.691,0.707,1.29c0,0.558-0.119,0.903-0.37,1.092c-0.244,0.172-1.017,0.267-2.331,0.267
					c-0.174,0-1.553,0.181-4.135-0.178c-2.578-0.303-5.077-0.206-7.497-0.206c-2.72,0-6.803-0.263-12.199,0.384
					c-1.245,0-2.006-0.095-2.284-0.267c-0.285-0.188-0.411-0.534-0.411-1.092c0-0.51,0.192-0.886,0.611-1.156
					c0.41-0.27,1.245-0.522,2.503-0.729c2.45-0.382,4.099-1.132,4.96-2.147c0.841-1.033,1.29-2.484,1.29-4.313v-32.56
					c0-8.826-1.309-15.254-3.896-19.298c-2.556-4.005-6.675-6.034-12.332-6.034c-5.413,0-9.681,2.001-13.018,6.212l-0.147,0.231
					c-3.172,4.094-4.691,9.519-4.756,16.835l-0.446,34.586c0,1.832,0.374,3.3,1.233,4.327c0.849,0.999,2.45,1.739,4.866,2.144
					c1.244,0.121,2.087,0.315,2.574,0.584c0.435,0.287,0.676,0.686,0.676,1.316c0,0.529-0.144,0.903-0.376,1.075
					c-0.235,0.168-1.003,0.251-2.317,0.251c-0.187,0-1.579,0.187-4.14-0.166c-2.605-0.282-5.087-0.282-7.509-0.282
					c-2.734,0-6.788-0.211-12.198,0.448c-1.234,0-2.013-0.083-2.302-0.251c-0.259-0.172-0.394-0.546-0.394-1.075
					c0-0.525,0.178-0.906,0.616-1.193c0.41-0.252,1.22-0.491,2.493-0.707c2.473-0.404,4.103-1.145,4.982-2.144
					c0.847-1.027,1.257-2.495,1.257-4.327"/>
				<path fill="#FFFFFF" d="M571.888,49.97c0.835,1.36,0.835,4.139,0.835,4.139v40.11c0,0.52,0.053,0.949,0.227,1.296
					c0.164,0.339,0.331,0.506,0.52,0.506c0.229,0,1.156-0.878,2.784-2.67c1.615-1.74,3.209-3.233,4.841-4.459
					c2.835-2.107,5.563-3.583,8.145-4.43c2.571-0.846,5.529-1.27,8.886-1.27c9.273,0,16.87,3.426,22.766,10.384
					c5.88,6.906,8.82,15.937,8.82,27.117c0,11.854-3.301,21.384-9.959,28.606c-6.628,7.259-15.221,10.866-25.692,10.866
					c-6.042,0-12.029-0.721-17.737-2.686c-6.213-2.144-9.414-6.345-9.169-6.108c-3.931-3.819-4.96-10.54-4.96-13.605V62.021
					c0-2.357-0.523-4.142-1.496-5.412c-1.04-1.238-2.532-2.025-4.44-1.87c-1.005,0.071-1.609,0.244-2.026,0.244
					c-0.386,0-0.724-0.166-0.958-0.487c-0.308-0.322-0.451-0.656-0.451-1.046c0-1.021,1.092-1.804,3.763-2.472
					c0.831-0.203,2.784-0.591,3.84-0.886C565.87,48.557,569.54,46.103,571.888,49.97z M572.723,142.393
					c0,3.761,1.878,8.011,5.597,10.647c3.755,2.601,8.313,3.908,13.658,3.908c7.876,0,14.154-3.067,18.794-9.274
					c4.671-6.159,6.96-14.536,6.96-25.093c0-10.359-2.146-18.523-6.462-24.518c-4.305-5.957-10.096-8.927-17.333-8.927
					c-5.52,0-10.463,1.809-14.735,5.486c-4.342,3.684-6.479,7.966-6.479,12.946V142.393z"/>
				<path fill="#FFFFFF" d="M749.711,83.192c5.993,0,10.289,0.486,12.852,1.475c2.518,1.015,4.407,3.762,4.596,6.098
					c0.182,2.35,0.097,5.321-0.153,6.547c-0.243,1.205-0.494,1.867-0.993,2.536c-0.327,0.436-0.811,0.66-1.436,0.66
					c-0.821,0-1.532-0.905-2.142-2.716c-0.616-1.822-1.413-3.395-2.435-4.825c-1.54-2.247-3.548-3.999-5.98-5.22
					c-2.431-1.23-5.022-1.834-7.746-1.834c-3.765,0-6.951,1.143-9.453,3.389c-2.547,2.251-3.809,5.096-3.809,8.518
					c0,3.196,1.029,5.872,3.026,7.989c2.03,2.15,6.097,4.552,12.277,7.242l0.57,0.325c14.364,5.996,21.584,13.404,21.584,22.118
					c0,7.688-2.535,13.718-7.594,18.087c-5.075,4.396-12.021,6.586-20.896,6.586c-5.35,0-10.181-0.868-14.487-2.589
					c-4.316-1.73-6.488-3.279-6.949-6.045c-0.374-2.283-0.476-2.362-0.334-5.436c0.138-3.073,0.557-5.476,1.086-8.434
					c0.115-0.746,0.313-1.443,0.665-1.972c0.429-0.505,0.898-0.768,1.531-0.768c1.013,0,1.957,1.668,2.726,5.01
					c0.558,2.234,1.109,4.135,1.585,5.638c1.36,4.189,3.211,7.138,5.568,8.83c2.352,1.688,5.73,2.547,10.06,2.547
					c5.238,0,9.537-1.47,12.771-4.383c3.268-2.906,4.905-6.693,4.905-11.425c0-3.755-1.213-6.853-3.587-9.355
					c-2.4-2.543-6.86-5.109-13.401-7.724c-7.767-3.156-13.104-6.21-16.047-9.132c-2.932-2.964-4.392-6.584-4.392-10.911
					c0-6.27,2.354-11.308,7.109-15.126C735.511,85.068,741.833,83.192,749.711,83.192z"/>
				<path fill="#FFFFFF" d="M706.412,133.011c0,0-0.066,1.532-1.36,2.994c-1.181,1.305-13.814,15.458-13.814,15.458
					c-2.618,3.009-5.756,5.031-8.682,6.486c-2.908,1.458-5.583,1.921-8.822,2.134l-2.374,0.083c-4.286,0-8.168-0.912-11.662-2.736
					c-3.53-1.802-6.167-4.305-7.935-7.475c-1.33-2.221-2.325-4.752-2.897-7.53c-0.646-2.774-0.966-6.494-0.966-11.169v-5.237V96.086
					c0-1.913-0.427-3.402-1.355-4.475c-0.897-1.071-2.683-1.813-5.283-2.259c-1.243-0.076-2.084-0.255-2.586-0.526
					c-0.463-0.281-0.712-0.678-0.712-1.154c0-0.579,0.172-0.962,0.404-1.169c0.237-0.216,0.744-0.319,1.48-0.319
					c-0.204,0,0.714-0.128,2.683,0.192c1.978,0.359,3.943,0.424,6.131,0.424c1.001,0,2.37-0.065,3.876-0.424
					c1.488-0.32,2.51-0.192,3.088-0.192c1.458,0,2.315,0.23,2.639,0.744c0.297,0.513,0.481,1.913,0.481,4.205v37.591
					c0,8.824,1.353,15.151,4.12,19.011c2.722,3.823,7.202,5.763,13.399,5.763c6.592,0,11.406-2.299,14.609-6.804
					c3.138-4.539,4.703-11.471,4.703-20.864V96.086c0-1.913-0.438-3.402-1.341-4.475c-0.912-1.071-2.689-1.813-5.31-2.259
					c-1.256-0.076-2.111-0.255-2.599-0.526c-0.422-0.281-0.659-0.678-0.659-1.154c0-0.579,0.081-0.962,0.354-1.169
					c0.242-0.216,0.731-0.319,1.506-0.319c0.115,0,0.946-0.128,2.523,0.192c1.559,0.359,3.13,0.424,4.658,0.424
					c1.743,0,3.571-0.065,5.553-0.424c1.989-0.32,3.035-0.192,3.245-0.192c1.298,0,2.105,0.192,2.427,0.616
					c0.303,0.436,0.483,1.898,0.483,4.333v41.489L706.412,133.011z"/>
				<path fill="#FFFFFF" d="M299.458,107.53c1.18-1.341,13.771-15.462,13.771-15.462c2.645-3.01,5.885-5.653,8.728-7.194
					c2.838-1.551,5.842-2.118,8.819-2.118c2.999,0,5.45,0.708,7.26,2.118c1.829,1.399,2.747,3.235,2.747,5.494
					c0,2.002-0.63,3.729-1.958,5.148c-1.283,1.424-2.784,2.143-4.434,2.143c-1.681,0-3.735-1.039-6.2-3.118
					c-2.484-2.067-4.729-3.12-6.765-3.12c-3.465,0-6.412,2.393-8.844,7.182c-2.438,4.769-3.67,11.122-3.67,19.042v27.407
					c0,3.124,0.299,5.255,0.877,6.411c0.604,1.141,1.76,1.974,3.466,2.604c1.914,0.404,4.107,0.673,6.579,0.765
					c2.464,0.108,3.696,0.582,3.696,1.391c0,0.387-0.179,0.651-0.604,0.805c-0.402,0.146-1.218,0.236-2.471,0.236
					c-0.692,0-2.957-0.153-6.778-0.514c-3.817-0.301-7.218-0.141-10.216-0.141c-1.926,0-4.275-0.16-7.042,0.141
					c-2.761,0.36-4.569,0.514-5.379,0.514c-1.367,0-2.188-0.091-2.451-0.257c-0.303-0.161-0.424-0.448-0.424-0.867
					c0-0.803,0.84-1.308,2.522-1.47c1.386-0.14,2.567-0.372,3.567-0.603c1.497-0.425,2.51-1.237,3.044-2.459
					c0.526-1.173,0.816-3.374,0.816-6.557v-34.524C298.116,110.527,298.128,108.993,299.458,107.53z"/>
				<path fill="#FFFFFF" d="M411.047,93.827c-1.638-1.733-3.403-3.247-5.29-4.55c-0.064-0.04-0.131-0.104-0.197-0.155
					c-0.251-0.166-0.516-0.295-0.759-0.461c-5.714-3.517-12.631-5.327-20.755-5.469c-11.511,0.191-17.765,4.556-25.016,11.084
					c-5,4.506-10.34,11.752-11.636,16.873c-0.86,3.453-1.701,6.631-1.727,10.607c0.039,11.428,3.396,20.681,10.103,27.759
					c1.63,1.747,3.402,3.25,5.283,4.56c0.068,0.057,0.133,0.109,0.205,0.158c0.242,0.168,0.506,0.297,0.754,0.457
					c5.708,3.518,12.635,5.344,20.755,5.476c11.517-0.183,18.442-4.68,25.357-11.558c4.603-4.606,9.261-9.34,11.515-16.787
					c0.823-2.709,1.49-6.243,1.507-10.223C421.11,110.161,417.747,100.92,411.047,93.827z M402.605,148.112
					c-4.56,6.078-10.947,9.107-19.136,9.107c-5.951,0-10.945-1.883-15.005-5.617c-1.456-1.288-2.825-2.792-4.064-4.556
					c-4.698-6.611-7.039-15.417-7.039-26.391c0-10.893,2.29-19.353,6.84-25.418c4.576-6.077,10.953-9.106,19.15-9.106
					c5.944,0,10.943,1.887,14.997,5.616c1.458,1.295,2.821,2.805,4.059,4.569c4.697,6.604,7.04,15.41,7.04,26.386
					C409.447,133.593,407.163,142.053,402.605,148.112z"/>
			</g>
			<g>
				<path fill="#FFFFFF" d="M784.027,83.937c2.149,0,3.999,0.771,5.542,2.313c1.545,1.542,2.317,3.394,2.317,5.559
					c0,2.164-0.769,4.018-2.305,5.563c-1.539,1.546-3.392,2.317-5.555,2.317c-2.17,0-4.027-0.77-5.574-2.312
					c-1.545-1.542-2.317-3.397-2.317-5.568c0-2.172,0.774-4.027,2.323-5.564S781.864,83.937,784.027,83.937z M784.007,98.395
					c1.802,0,3.349-0.645,4.641-1.937c1.29-1.29,1.938-2.84,1.938-4.648c0-1.81-0.646-3.356-1.934-4.641
					c-1.288-1.284-2.835-1.925-4.645-1.925s-3.354,0.641-4.64,1.925c-1.284,1.285-1.926,2.832-1.926,4.641
					c0,1.809,0.642,3.358,1.926,4.648C780.652,97.75,782.197,98.395,784.007,98.395z M787.556,96.171h-1.564l-0.659-1.847
					c-0.396-1.107-1.143-1.66-2.243-1.66h-1.075v3.507h-1.367v-8.465h3.183c2.24,0,3.36,0.775,3.36,2.327
					c0,1.497-0.731,2.299-2.201,2.412c0.752,0.229,1.308,0.765,1.67,1.607L787.556,96.171z M782.014,91.485h1.713
					c1.342,0,2.014-0.442,2.014-1.327c0-0.869-0.693-1.304-2.077-1.304h-1.649V91.485z"/>
			</g>
		</g>
	</g>
	<g>
		<path fill="#00A2C2" d="M118.216,198.487c0,0-22.839,0.827-68.421-37.782c-38.889-32.911-38.123-56.644-38.123-56.644v-0.081
			c0,0-0.766-23.737,38.123-56.635c45.582-38.579,68.44-37.769,68.44-37.769l0.023,0.019c0,0,22.809-0.795,68.413,37.789
			C225.571,80.276,224.797,104,224.797,104v0.062c0,0,0.774,23.708-38.126,56.644c-45.604,38.609-68.413,37.782-68.413,37.782
			H118.216z"/>
		<path fill="#FFFFFF" d="M118.235,73.424c17.064,0,30.914,13.84,30.914,30.91c0,17.026-13.85,30.921-30.914,30.921
			c-17.096,0-30.914-13.895-30.914-30.921C87.321,87.265,101.139,73.424,118.235,73.424z"/>
		<path fill="#162429" d="M127.86,104.329c0,5.303-4.305,9.605-9.625,9.605c-5.34,0-9.632-4.303-9.632-9.605
			c0-5.335,4.292-9.651,9.632-9.651C123.556,94.678,127.86,98.994,127.86,104.329z"/>
	</g>
</g>
</svg>
